<?xml version="1.0" encoding="UTF-8"?>
<svg width="700pt" height="700pt" version="1.1" viewBox="0 0 700 700" xmlns="http://www.w3.org/2000/svg" xmlns:xlink="http://www.w3.org/1999/xlink">
 <defs>
  <symbol id="u" overflow="visible">
   <path d="m13.406-0.79688c-0.69922 0.35547-1.4219 0.62109-2.1719 0.79688-0.74219 0.1875-1.5234 0.28125-2.3438 0.28125-2.4297 0-4.3516-0.67578-5.7656-2.0312-1.418-1.3633-2.125-3.207-2.125-5.5312 0-2.3203 0.70703-4.1602 2.125-5.5156 1.4141-1.3633 3.3359-2.0469 5.7656-2.0469 0.82031 0 1.6016 0.09375 2.3438 0.28125 0.75 0.17969 1.4727 0.44531 2.1719 0.79688v3.0156c-0.69922-0.46875-1.3867-0.8125-2.0625-1.0312-0.67969-0.22656-1.3906-0.34375-2.1406-0.34375-1.3438 0-2.4023 0.43359-3.1719 1.2969-0.76172 0.85547-1.1406 2.0391-1.1406 3.5469 0 1.5117 0.37891 2.6992 1.1406 3.5625 0.76953 0.85547 1.8281 1.2812 3.1719 1.2812 0.75 0 1.4609-0.10938 2.1406-0.32812 0.67578-0.22656 1.3633-0.57812 2.0625-1.0469z"/>
  </symbol>
  <symbol id="c" overflow="visible">
   <path d="m9.8125-7.9531c-0.3125-0.14453-0.62109-0.25-0.92188-0.3125-0.30469-0.070313-0.60547-0.10938-0.90625-0.10938-0.90625 0-1.6055 0.28906-2.0938 0.85938-0.48047 0.57422-0.71875 1.3984-0.71875 2.4688v5.0469h-3.4844v-10.938h3.4844v1.7969c0.44531-0.71875 0.96094-1.2383 1.5469-1.5625 0.58203-0.33203 1.2812-0.5 2.0938-0.5 0.125 0 0.25391 0.007813 0.39062 0.015625 0.13281 0.011719 0.33203 0.03125 0.59375 0.0625z"/>
  </symbol>
  <symbol id="b" overflow="visible">
   <path d="m12.594-5.5v1h-8.1719c0.082031 0.82422 0.37891 1.4375 0.89062 1.8438 0.50781 0.40625 1.2188 0.60938 2.125 0.60938 0.73828 0 1.4922-0.10938 2.2656-0.32812 0.76953-0.21875 1.5625-0.54688 2.375-0.98438v2.6875c-0.82422 0.3125-1.6523 0.54688-2.4844 0.70312-0.82422 0.16406-1.6484 0.25-2.4688 0.25-1.9805 0-3.5234-0.5-4.625-1.5-1.0938-1.0078-1.6406-2.4219-1.6406-4.2344 0-1.7891 0.53516-3.1953 1.6094-4.2188 1.082-1.0195 2.5664-1.5312 4.4531-1.5312 1.7188 0 3.0938 0.52344 4.125 1.5625 1.0312 1.0312 1.5469 2.4141 1.5469 4.1406zm-3.5938-1.1562c0-0.66406-0.19531-1.2031-0.57812-1.6094-0.38672-0.40625-0.89062-0.60938-1.5156-0.60938-0.67969 0-1.2305 0.19531-1.6562 0.57812-0.41797 0.375-0.67969 0.92188-0.78125 1.6406z"/>
  </symbol>
  <symbol id="e" overflow="visible">
   <path d="m6.5781-4.9219c-0.73047 0-1.2773 0.125-1.6406 0.375-0.36719 0.24219-0.54688 0.60547-0.54688 1.0938 0 0.4375 0.14453 0.78125 0.4375 1.0312 0.30078 0.25 0.71094 0.375 1.2344 0.375 0.65625 0 1.207-0.23438 1.6562-0.70312 0.45703-0.46875 0.6875-1.0547 0.6875-1.7656v-0.40625zm5.3438-1.3125v6.2344h-3.5156v-1.625c-0.46875 0.66797-1 1.1523-1.5938 1.4531-0.58594 0.30078-1.2969 0.45312-2.1406 0.45312-1.125 0-2.043-0.32812-2.75-0.98438-0.71094-0.66406-1.0625-1.5234-1.0625-2.5781 0-1.2812 0.4375-2.2188 1.3125-2.8125 0.88281-0.60156 2.2734-0.90625 4.1719-0.90625h2.0625v-0.28125c0-0.55078-0.21875-0.95312-0.65625-1.2031-0.4375-0.25781-1.1211-0.39062-2.0469-0.39062-0.75 0-1.4492 0.078125-2.0938 0.23438-0.64844 0.14844-1.2461 0.36719-1.7969 0.65625v-2.6562c0.75-0.1875 1.5-0.32812 2.25-0.42188 0.75781-0.09375 1.5195-0.14062 2.2812-0.14062 1.9688 0 3.3906 0.39062 4.2656 1.1719 0.875 0.77344 1.3125 2.0391 1.3125 3.7969z"/>
  </symbol>
  <symbol id="a" overflow="visible">
   <path d="m5.5-14.047v3.1094h3.6094v2.5h-3.6094v4.6406c0 0.51172 0.097656 0.85547 0.29688 1.0312 0.20703 0.17969 0.60938 0.26562 1.2031 0.26562h1.7969v2.5h-3c-1.375 0-2.3555-0.28516-2.9375-0.85938-0.57422-0.58203-0.85938-1.5625-0.85938-2.9375v-4.6406h-1.7344v-2.5h1.7344v-3.1094z"/>
  </symbol>
  <symbol id="k" overflow="visible">
   <path d="m9.125-9.3438v-5.8594h3.5156v15.203h-3.5156v-1.5781c-0.48047 0.64844-1.0117 1.1211-1.5938 1.4219-0.58594 0.28906-1.2578 0.4375-2.0156 0.4375-1.3438 0-2.4492-0.53516-3.3125-1.6094-0.86719-1.0703-1.2969-2.4453-1.2969-4.125 0-1.6875 0.42969-3.0664 1.2969-4.1406 0.86328-1.0703 1.9688-1.6094 3.3125-1.6094 0.75781 0 1.4297 0.15234 2.0156 0.45312 0.58203 0.30469 1.1133 0.77344 1.5938 1.4062zm-2.3125 7.0938c0.75 0 1.3203-0.26953 1.7188-0.8125 0.39453-0.55078 0.59375-1.3477 0.59375-2.3906 0-1.0391-0.19922-1.832-0.59375-2.375-0.39844-0.55078-0.96875-0.82812-1.7188-0.82812-0.74219 0-1.3086 0.27734-1.7031 0.82812-0.39844 0.54297-0.59375 1.3359-0.59375 2.375 0 1.043 0.19531 1.8398 0.59375 2.3906 0.39453 0.54297 0.96094 0.8125 1.7031 0.8125z"/>
  </symbol>
  <symbol id="j" overflow="visible">
   <path d="m7.5-2.25c0.75 0 1.3203-0.26953 1.7188-0.8125 0.39453-0.55078 0.59375-1.3477 0.59375-2.3906 0-1.0391-0.19922-1.832-0.59375-2.375-0.39844-0.55078-0.96875-0.82812-1.7188-0.82812s-1.3281 0.27734-1.7344 0.82812c-0.39844 0.54297-0.59375 1.3359-0.59375 2.375 0 1.0312 0.19531 1.8242 0.59375 2.375 0.40625 0.55469 0.98438 0.82812 1.7344 0.82812zm-2.3281-7.0938c0.48828-0.63281 1.0234-1.1016 1.6094-1.4062 0.58203-0.30078 1.2539-0.45312 2.0156-0.45312 1.3516 0 2.4609 0.53906 3.3281 1.6094 0.86328 1.0742 1.2969 2.4531 1.2969 4.1406 0 1.6797-0.43359 3.0547-1.2969 4.125-0.86719 1.0742-1.9766 1.6094-3.3281 1.6094-0.76172 0-1.4336-0.15234-2.0156-0.45312-0.58594-0.30078-1.1211-0.76953-1.6094-1.4062v1.5781h-3.4844v-15.203h3.4844z"/>
  </symbol>
  <symbol id="i" overflow="visible">
   <path d="m0.25-10.938h3.4844l2.9531 7.4219 2.5-7.4219h3.4844l-4.5938 11.969c-0.46094 1.2188-1 2.0664-1.625 2.5469-0.61719 0.48828-1.4219 0.73438-2.4219 0.73438h-2.0312v-2.2969h1.0938c0.59375 0 1.0234-0.09375 1.2969-0.28125 0.26953-0.1875 0.47656-0.52734 0.625-1.0156l0.10938-0.29688z"/>
  </symbol>
  <symbol id="h" overflow="visible">
   <path d="m0.09375-14.578h3.7812l3.875 10.766 3.8594-10.766h3.7656l-5.3906 14.578h-4.4844z"/>
  </symbol>
  <symbol id="g" overflow="visible">
   <path d="m10.516-10.594v2.8438c-0.46875-0.32031-0.94531-0.5625-1.4219-0.71875-0.48047-0.15625-0.98047-0.23438-1.5-0.23438-0.96875 0-1.7305 0.28906-2.2812 0.85938-0.54297 0.5625-0.8125 1.3594-0.8125 2.3906 0 1.0234 0.26953 1.8203 0.8125 2.3906 0.55078 0.5625 1.3125 0.84375 2.2812 0.84375 0.55078 0 1.0703-0.078125 1.5625-0.23438 0.48828-0.16406 0.94141-0.41016 1.3594-0.73438v2.8594c-0.54297 0.21094-1.0938 0.35938-1.6562 0.45312-0.5625 0.10156-1.1328 0.15625-1.7031 0.15625-1.9688 0-3.5117-0.50391-4.625-1.5156-1.1172-1.0078-1.6719-2.4141-1.6719-4.2188 0-1.8125 0.55469-3.2227 1.6719-4.2344 1.1133-1.0078 2.6562-1.5156 4.625-1.5156 0.57031 0 1.1328 0.054687 1.6875 0.15625 0.5625 0.09375 1.1172 0.24609 1.6719 0.45312z"/>
  </symbol>
  <symbol id="d" overflow="visible">
   <path d="m6.8906-8.7031c-0.78125 0-1.375 0.28125-1.7812 0.84375-0.40625 0.55469-0.60938 1.3555-0.60938 2.4062 0 1.043 0.20312 1.8438 0.60938 2.4062 0.40625 0.55469 1 0.82812 1.7812 0.82812 0.75781 0 1.3359-0.27344 1.7344-0.82812 0.40625-0.5625 0.60938-1.3633 0.60938-2.4062 0-1.0508-0.20312-1.8516-0.60938-2.4062-0.39844-0.5625-0.97656-0.84375-1.7344-0.84375zm0-2.5c1.875 0 3.3359 0.51172 4.3906 1.5312 1.0625 1.0117 1.5938 2.418 1.5938 4.2188 0 1.793-0.53125 3.1992-1.5938 4.2188-1.0547 1.0117-2.5156 1.5156-4.3906 1.5156-1.8984 0-3.375-0.50391-4.4375-1.5156-1.0625-1.0195-1.5938-2.4258-1.5938-4.2188 0-1.8008 0.53125-3.207 1.5938-4.2188 1.0625-1.0195 2.5391-1.5312 4.4375-1.5312z"/>
  </symbol>
  <symbol id="t" overflow="visible">
   <path d="m10.219-10.594v2.6562c-0.74219-0.3125-1.4609-0.54688-2.1562-0.70312-0.69922-0.15625-1.3594-0.23438-1.9844-0.23438-0.65625 0-1.1484 0.085938-1.4688 0.25-0.32422 0.16797-0.48438 0.42188-0.48438 0.76562 0 0.28125 0.11719 0.49609 0.35938 0.64062 0.25 0.14844 0.6875 0.25781 1.3125 0.32812l0.625 0.09375c1.7891 0.23047 2.9922 0.60547 3.6094 1.125 0.61328 0.52344 0.92188 1.3398 0.92188 2.4531 0 1.168-0.43359 2.043-1.2969 2.625-0.85547 0.58594-2.1328 0.875-3.8281 0.875-0.73047 0-1.4805-0.058594-2.25-0.17188-0.77344-0.11328-1.5625-0.28516-2.375-0.51562v-2.6562c0.69531 0.34375 1.4102 0.60156 2.1406 0.76562 0.72656 0.16797 1.4727 0.25 2.2344 0.25 0.6875 0 1.2031-0.09375 1.5469-0.28125s0.51562-0.46875 0.51562-0.84375c0-0.3125-0.12109-0.53906-0.35938-0.6875-0.24219-0.15625-0.71484-0.27344-1.4219-0.35938l-0.60938-0.078125c-1.5625-0.19531-2.6562-0.55469-3.2812-1.0781-0.625-0.53125-0.9375-1.332-0.9375-2.4062 0-1.1562 0.39453-2.0156 1.1875-2.5781 0.80078-0.5625 2.0195-0.84375 3.6562-0.84375 0.64453 0 1.3203 0.054687 2.0312 0.15625 0.70703 0.09375 1.4766 0.24609 2.3125 0.45312z"/>
  </symbol>
  <symbol id="f" overflow="visible">
   <path d="m1.6875-15.203h3.4844v15.203h-3.4844z"/>
  </symbol>
  <symbol id="s" overflow="visible">
   <path d="m8.875-15.203v2.2969h-1.9375c-0.49219 0-0.83594 0.09375-1.0312 0.28125-0.19922 0.17969-0.29688 0.48438-0.29688 0.92188v0.76562h3v2.5h-3v8.4375h-3.4844v-8.4375h-1.75v-2.5h1.75v-0.76562c0-1.1875 0.32812-2.0664 0.98438-2.6406 0.66406-0.57031 1.6953-0.85938 3.0938-0.85938z"/>
  </symbol>
  <symbol id="r" overflow="visible">
   <path d="m11.812-9.125c0.44531-0.67578 0.97266-1.1914 1.5781-1.5469 0.61328-0.35156 1.2852-0.53125 2.0156-0.53125 1.25 0 2.2031 0.39062 2.8594 1.1719 0.66406 0.77344 1 1.8984 1 3.375v6.6562h-3.5156v-5.7031-0.26562c0.007812-0.09375 0.015625-0.22266 0.015625-0.39062 0-0.76953-0.11719-1.3281-0.34375-1.6719-0.23047-0.35156-0.60156-0.53125-1.1094-0.53125-0.65625 0-1.168 0.27734-1.5312 0.82812-0.36719 0.54297-0.55469 1.3281-0.5625 2.3594v5.375h-3.5156v-5.7031c0-1.207-0.10547-1.9844-0.3125-2.3281-0.21094-0.35156-0.57812-0.53125-1.1094-0.53125-0.67969 0-1.1992 0.27734-1.5625 0.82812-0.36719 0.54297-0.54688 1.3281-0.54688 2.3594v5.375h-3.5156v-10.938h3.5156v1.5938c0.4375-0.61328 0.92969-1.0781 1.4844-1.3906 0.55078-0.3125 1.1641-0.46875 1.8438-0.46875 0.75 0 1.4141 0.18359 2 0.54688 0.58203 0.36719 1.0195 0.875 1.3125 1.5312z"/>
  </symbol>
  <symbol id="q" overflow="visible">
   <path d="m12.672-6.6562v6.6562h-3.5156v-5.0781c0-0.95703-0.023438-1.6133-0.0625-1.9688-0.042969-0.36328-0.11719-0.62891-0.21875-0.79688-0.13672-0.22656-0.32422-0.40625-0.5625-0.53125-0.23047-0.125-0.49609-0.1875-0.79688-0.1875-0.73047 0-1.3047 0.28125-1.7188 0.84375-0.41797 0.5625-0.625 1.3438-0.625 2.3438v5.375h-3.4844v-15.203h3.4844v5.8594c0.53125-0.63281 1.0938-1.1016 1.6875-1.4062 0.59375-0.30078 1.2422-0.45312 1.9531-0.45312 1.2695 0 2.2266 0.39062 2.875 1.1719 0.65625 0.77344 0.98438 1.8984 0.98438 3.375z"/>
  </symbol>
  <symbol id="p" overflow="visible">
   <path d="m1.8438-14.578h4.1875l5.3125 10v-10h3.5625v14.578h-4.2031l-5.2969-10v10h-3.5625z"/>
  </symbol>
  <symbol id="o" overflow="visible">
   <path d="m1.5625-4.2656v-6.6719h3.5156v1.0938c0 0.59375-0.007813 1.3398-0.015625 2.2344v1.7812c0 0.88672 0.019531 1.5234 0.0625 1.9062 0.050781 0.38672 0.12891 0.66797 0.23438 0.84375 0.14453 0.23047 0.33203 0.40625 0.5625 0.53125 0.22656 0.125 0.49219 0.1875 0.79688 0.1875 0.72656 0 1.3008-0.28125 1.7188-0.84375 0.41406-0.5625 0.625-1.3359 0.625-2.3281v-5.4062h3.5v10.938h-3.5v-1.5781c-0.53125 0.63672-1.0938 1.1055-1.6875 1.4062-0.58594 0.30078-1.2305 0.45312-1.9375 0.45312-1.2617 0-2.2266-0.38281-2.8906-1.1562-0.65625-0.78125-0.98438-1.9102-0.98438-3.3906z"/>
  </symbol>
  <symbol id="n" overflow="visible">
   <path d="m12.672-6.6562v6.6562h-3.5156v-5.0938c0-0.94531-0.023438-1.5977-0.0625-1.9531-0.042969-0.36328-0.11719-0.62891-0.21875-0.79688-0.13672-0.22656-0.32422-0.40625-0.5625-0.53125-0.23047-0.125-0.49609-0.1875-0.79688-0.1875-0.73047 0-1.3047 0.28125-1.7188 0.84375-0.41797 0.5625-0.625 1.3438-0.625 2.3438v5.375h-3.4844v-10.938h3.4844v1.5938c0.53125-0.63281 1.0938-1.1016 1.6875-1.4062 0.59375-0.30078 1.2422-0.45312 1.9531-0.45312 1.2695 0 2.2266 0.39062 2.875 1.1719 0.65625 0.77344 0.98438 1.8984 0.98438 3.375z"/>
  </symbol>
  <symbol id="m" overflow="visible">
   <path d="m1.8438-14.578h6.2344c1.8516 0 3.2734 0.41406 4.2656 1.2344 1 0.82422 1.5 1.9961 1.5 3.5156 0 1.5312-0.5 2.7109-1.5 3.5312-0.99219 0.82422-2.4141 1.2344-4.2656 1.2344h-2.4844v5.0625h-3.75zm3.75 2.7188v4.0781h2.0781c0.72656 0 1.2891-0.17578 1.6875-0.53125 0.40625-0.35156 0.60938-0.85938 0.60938-1.5156 0-0.64453-0.20312-1.1445-0.60938-1.5-0.39844-0.35156-0.96094-0.53125-1.6875-0.53125z"/>
  </symbol>
  <symbol id="l" overflow="visible">
   <path d="m1.6875-10.938h3.4844v10.734c0 1.4688-0.35547 2.5859-1.0625 3.3594-0.69922 0.76953-1.7148 1.1562-3.0469 1.1562h-1.7344v-2.2969h0.60938c0.66406 0 1.125-0.15234 1.375-0.45312 0.25-0.29297 0.375-0.88281 0.375-1.7656zm0-4.2656h3.4844v2.8594h-3.4844z"/>
  </symbol>
 </defs>
 <g>
  <path d="m582 484h-106.01c10.453-6.5977 18.184-16.727 18.184-28.348 0-20.469-23.969-36.348-44.586-36.348-4.6914 0-15.992 1.7227-29.461 4.7461-8.7461-11.238-15.074-25.066-18.762-41.207-5.957-26.051-0.98047-53.066 13.656-74.113 7.5117-10.805 14.617-17.594 14.801-17.77 43.215-44.27 30.957-88.312 30.422-90.141-16.078-56.406-85.355-95.082-105.15-105.13 11.352-11.582 17.145-23.434 17.145-35.297 0-13.25-7.168-26.488-21.309-39.352-1.5234-1.3906-3.8594-1.3906-5.3828 0-14.137 12.863-21.305 26.102-21.305 39.352 0 11.93 5.8672 23.848 17.344 35.496-17.828 10.199-79.414 48.715-99.816 104.63-0.69531 1.8516-16.512 45.922 23.406 90.445 0.33203 0.33594 32.887 33.93 35.809 65.16 0.042969 0.37109 3.9023 36.93-20.242 68.039-13.699-3.0938-25.227-4.8594-29.98-4.8594-20.621 0-44.59 15.879-44.59 36.348 0 11.621 7.7344 21.75 18.184 28.348h-106.36c-15.438 0-28 12.562-28 28s12.562 28 28 28h464c15.438 0 28-12.562 28-28s-12.562-28-28-28zm-95.824-28.348c0 15.266-20.117 28.348-36.586 28.348-25.984 0-95.414-11.23-95.414-23.098 0-8.8633 35.523-21.609 64.512-28.578 0.44922-0.027344 0.87891-0.125 1.3008-0.30859 12.238-2.8867 23.191-4.7109 29.598-4.7109 16.473 0 36.59 13.082 36.59 28.348zm-136 13.418c6.7461 6.5508 21.23 11.406 37.141 14.93h-74.277c15.906-3.5234 30.391-8.3789 37.137-14.93zm-1.9336-203.72c-17.645 0-32-21.785-32-48.566s14.355-48.566 32-48.566c17.645 0 32 21.785 32 48.566s-14.355 48.566-32 48.566zm40-48.566c0-31.191-17.945-56.566-40-56.566-22.055 0-40 25.375-40 56.566 0 24.32 10.93 45.043 26.191 53.02-8.625 1.8203-20.836 2.3164-33.016-4.3047-23.414-12.715-32.969-44.891-21.762-73.246 9.9609-25.191 24.309-54.961 68.512-90.305 41.477 35.055 67.34 66.148 74.867 90.035 8.957 28.41-3.2812 60.688-27.863 73.484-12.848 6.6914-24.93 6.2539-33.34 4.4492 15.375-7.8906 26.41-28.695 26.41-53.133zm-55.996-156.39c0-10.082 5.375-20.465 15.996-30.895 10.621 10.43 16 20.812 16 30.895 0 10.078-5.3789 20.461-16 30.891-10.621-10.43-15.996-20.812-15.996-30.891zm-23.301 294.89c-3.1797-33.98-36.629-68.465-37.93-69.789-36.453-40.664-22.363-80.512-21.738-82.207 11.426-31.309 37.238-57.359 59.887-75.43-22.859 25.973-31.57 47.855-36.945 61.453-12.672 32.051-1.5234 68.605 25.379 83.219 22.359 12.137 44.113 4.1953 50.621 1.2812 3.793 1.7578 12.801 5.2539 24.359 5.2539 7.8594 0 16.902-1.6172 26.289-6.5039 27.918-14.531 41.887-50.984 31.801-82.984-6.2344-19.773-23.926-43.855-51.66-70.613 27.145 17.773 63.066 47.297 73.551 84.066 0.48047 1.6797 11.348 41.562-28.348 82.23-0.3125 0.29688-7.7422 7.3789-15.758 18.898-15.918 22.895-21.344 52.223-14.883 80.465 3.6406 15.934 9.6992 29.844 18.031 41.445-23.867 5.957-51.328 15.371-61.426 26.309-10.027-10.863-37.191-20.227-60.941-26.191 23.824-33.012 19.891-69.391 19.711-70.902zm-94.77 100.37c0-15.266 20.121-28.348 36.59-28.348 6.4648 0 17.559 1.8555 29.926 4.7891 0.55859 0.27734 1.1445 0.46484 1.7461 0.46484 0.039062 0 0.074219-0.023438 0.10938-0.023438 28.82 7.0117 63.629 19.594 63.629 28.367 0 11.867-69.426 23.098-95.41 23.098-16.469 0-36.59-13.082-36.59-28.348zm367.82 76.348h-464c-11.027 0-20-8.9727-20-20s8.9727-20 20-20h464c11.027 0 20 8.9727 20 20s-8.9727 20-20 20z"/>
  <use x="70" y="620" xlink:href="#u"/>
  <use x="84.679688" y="620" xlink:href="#c"/>
  <use x="94.539062" y="620" xlink:href="#b"/>
  <use x="108.105469" y="620" xlink:href="#e"/>
  <use x="121.601562" y="620" xlink:href="#a"/>
  <use x="131.164062" y="620" xlink:href="#b"/>
  <use x="144.726562" y="620" xlink:href="#k"/>
  <use x="166.007812" y="620" xlink:href="#j"/>
  <use x="180.320312" y="620" xlink:href="#i"/>
  <use x="200.320312" y="620" xlink:href="#h"/>
  <use x="215.800781" y="620" xlink:href="#b"/>
  <use x="229.367188" y="620" xlink:href="#g"/>
  <use x="241.21875" y="620" xlink:href="#a"/>
  <use x="250.78125" y="620" xlink:href="#d"/>
  <use x="264.523438" y="620" xlink:href="#c"/>
  <use x="274.382812" y="620" xlink:href="#t"/>
  <use x="286.289062" y="620" xlink:href="#a"/>
  <use x="295.851562" y="620" xlink:href="#e"/>
  <use x="309.34375" y="620" xlink:href="#f"/>
  <use x="316.203125" y="620" xlink:href="#f"/>
  <use x="70" y="640" xlink:href="#s"/>
  <use x="78.703125" y="640" xlink:href="#c"/>
  <use x="88.5625" y="640" xlink:href="#d"/>
  <use x="102.304688" y="640" xlink:href="#r"/>
  <use x="130.109375" y="640" xlink:href="#a"/>
  <use x="139.667969" y="640" xlink:href="#q"/>
  <use x="153.90625" y="640" xlink:href="#b"/>
  <use x="174.433594" y="640" xlink:href="#p"/>
  <use x="191.171875" y="640" xlink:href="#d"/>
  <use x="204.914062" y="640" xlink:href="#o"/>
  <use x="219.148438" y="640" xlink:href="#n"/>
  <use x="240.351562" y="640" xlink:href="#m"/>
  <use x="255.007812" y="640" xlink:href="#c"/>
  <use x="264.875" y="640" xlink:href="#d"/>
  <use x="278.613281" y="640" xlink:href="#l"/>
  <use x="285.46875" y="640" xlink:href="#b"/>
  <use x="299.03125" y="640" xlink:href="#g"/>
  <use x="310.890625" y="640" xlink:href="#a"/>
 </g>
</svg>
