<?xml version="1.0" encoding="UTF-8"?>
<svg width="700pt" height="700pt" version="1.1" viewBox="0 0 700 700" xmlns="http://www.w3.org/2000/svg" xmlns:xlink="http://www.w3.org/1999/xlink">
 <defs>
  <symbol id="q" overflow="visible">
   <path d="m28.422-1.7031c-1.4688 0.76172-3 1.3359-4.5938 1.7188-1.5859 0.38281-3.2344 0.57812-4.9531 0.57812-5.1562 0-9.2422-1.4375-12.25-4.3125-3.0117-2.875-4.5156-6.7812-4.5156-11.719s1.5039-8.8438 4.5156-11.719c3.0078-2.8828 7.0938-4.3281 12.25-4.3281 1.7188 0 3.3672 0.19531 4.9531 0.57812 1.5938 0.38672 3.125 0.96094 4.5938 1.7188v6.4062c-1.4805-1.0078-2.9375-1.75-4.375-2.2188s-2.9492-0.70312-4.5312-0.70312c-2.8438 0-5.0859 0.91406-6.7188 2.7344-1.625 1.8242-2.4375 4.3359-2.4375 7.5312 0 3.1992 0.8125 5.7109 2.4375 7.5312 1.6328 1.8242 3.875 2.7344 6.7188 2.7344 1.582 0 3.0938-0.23438 4.5312-0.70312 1.4375-0.47656 2.8945-1.2188 4.375-2.2188z"/>
  </symbol>
  <symbol id="c" overflow="visible">
   <path d="m20.797-16.875c-0.64844-0.3125-1.293-0.53516-1.9375-0.67188-0.64844-0.14453-1.293-0.21875-1.9375-0.21875-1.9062 0-3.375 0.60938-4.4062 1.8281-1.0234 1.2188-1.5312 2.9688-1.5312 5.25v10.688h-7.4219v-23.203h7.4219v3.8125c0.94531-1.5195 2.0352-2.6289 3.2656-3.3281 1.2383-0.69531 2.7227-1.0469 4.4531-1.0469 0.25 0 0.51953 0.011719 0.8125 0.03125 0.28906 0.023437 0.71094 0.070313 1.2656 0.14062z"/>
  </symbol>
  <symbol id="a" overflow="visible">
   <path d="m26.719-11.656v2.1094h-17.328c0.17578 1.7422 0.80078 3.0469 1.875 3.9219 1.082 0.86719 2.5859 1.2969 4.5156 1.2969 1.5625 0 3.1602-0.22656 4.7969-0.6875 1.6328-0.46875 3.3164-1.1719 5.0469-2.1094v5.7188c-1.75 0.65625-3.5078 1.1523-5.2656 1.4844-1.75 0.34375-3.5078 0.51562-5.2656 0.51562-4.1992 0-7.4609-1.0625-9.7812-3.1875-2.3242-2.1328-3.4844-5.1289-3.4844-8.9844 0-3.7812 1.1406-6.7539 3.4219-8.9219 2.2812-2.1758 5.4258-3.2656 9.4375-3.2656 3.6445 0 6.5625 1.1016 8.75 3.2969 2.1875 2.1992 3.2812 5.1367 3.2812 8.8125zm-7.625-2.4688c0-1.4062-0.41406-2.5391-1.2344-3.4062-0.8125-0.86328-1.8867-1.2969-3.2188-1.2969-1.4375 0-2.6055 0.40625-3.5 1.2188-0.89844 0.80469-1.4531 1.9648-1.6719 3.4844z"/>
  </symbol>
  <symbol id="f" overflow="visible">
   <path d="m13.969-10.438c-1.5547 0-2.7188 0.26562-3.5 0.79688-0.78125 0.52344-1.1719 1.293-1.1719 2.3125 0 0.9375 0.3125 1.6719 0.9375 2.2031 0.63281 0.53125 1.5078 0.79688 2.625 0.79688 1.3945 0 2.5664-0.5 3.5156-1.5 0.95703-1 1.4375-2.2539 1.4375-3.7656v-0.84375zm11.328-2.7969v13.234h-7.4844v-3.4375c-0.99219 1.4062-2.1094 2.4336-3.3594 3.0781-1.2422 0.63281-2.75 0.95312-4.5312 0.95312-2.4062 0-4.3594-0.69531-5.8594-2.0938-1.4922-1.4062-2.2344-3.2227-2.2344-5.4531 0-2.7266 0.92969-4.7266 2.7969-6 1.875-1.2695 4.8125-1.9062 8.8125-1.9062h4.375v-0.57812c0-1.1641-0.46484-2.0195-1.3906-2.5625-0.92969-0.55078-2.3711-0.82812-4.3281-0.82812-1.5859 0-3.0625 0.16406-4.4375 0.48438-1.3672 0.3125-2.6328 0.78906-3.7969 1.4219v-5.6562c1.582-0.38281 3.1758-0.67578 4.7812-0.875 1.6016-0.20703 3.2031-0.3125 4.7969-0.3125 4.1875 0 7.207 0.82812 9.0625 2.4844 1.8633 1.6484 2.7969 4.3281 2.7969 8.0469z"/>
  </symbol>
  <symbol id="b" overflow="visible">
   <path d="m11.656-29.781v6.5781h7.6562v5.3125h-7.6562v9.8281c0 1.0859 0.21094 1.8203 0.64062 2.2031 0.4375 0.375 1.2891 0.5625 2.5625 0.5625h3.7969v5.2969h-6.3594c-2.9297 0-5-0.60938-6.2188-1.8281-1.2188-1.2266-1.8281-3.3047-1.8281-6.2344v-9.8281h-3.6875v-5.3125h3.6875v-6.5781z"/>
  </symbol>
  <symbol id="e" overflow="visible">
   <path d="m19.344-19.797v-12.438h7.4531v32.234h-7.4531v-3.3594c-1.0234 1.3672-2.1484 2.3672-3.375 3-1.2305 0.63281-2.6523 0.95312-4.2656 0.95312-2.8555 0-5.2031-1.1328-7.0469-3.4062-1.8359-2.2695-2.75-5.1914-2.75-8.7656 0-3.5703 0.91406-6.4922 2.75-8.7656 1.8438-2.2812 4.1914-3.4219 7.0469-3.4219 1.6016 0 3.0195 0.32422 4.25 0.96875 1.2383 0.64844 2.3672 1.6484 3.3906 3zm-4.8906 15.016c1.5938 0 2.8047-0.57812 3.6406-1.7344 0.83203-1.1641 1.25-2.8516 1.25-5.0625 0-2.207-0.41797-3.8906-1.25-5.0469-0.83594-1.1641-2.0469-1.75-3.6406-1.75-1.5742 0-2.7773 0.58594-3.6094 1.75-0.83594 1.1562-1.25 2.8398-1.25 5.0469 0 2.2109 0.41406 3.8984 1.25 5.0625 0.83203 1.1562 2.0352 1.7344 3.6094 1.7344z"/>
  </symbol>
  <symbol id="d" overflow="visible">
   <path d="m15.906-4.7812c1.5938 0 2.8047-0.57812 3.6406-1.7344 0.83203-1.1641 1.25-2.8516 1.25-5.0625 0-2.207-0.41797-3.8906-1.25-5.0469-0.83594-1.1641-2.0469-1.75-3.6406-1.75-1.5859 0-2.8047 0.58594-3.6562 1.75-0.84375 1.168-1.2656 2.8516-1.2656 5.0469 0 2.1992 0.42188 3.8828 1.2656 5.0469 0.85156 1.168 2.0703 1.75 3.6562 1.75zm-4.9219-15.016c1.0195-1.3516 2.1484-2.3516 3.3906-3 1.2383-0.64453 2.6641-0.96875 4.2812-0.96875 2.8633 0 5.2109 1.1406 7.0469 3.4219 1.832 2.2734 2.75 5.1953 2.75 8.7656 0 3.5742-0.91797 6.4961-2.75 8.7656-1.8359 2.2734-4.1836 3.4062-7.0469 3.4062-1.6172 0-3.043-0.32031-4.2812-0.95312-1.2422-0.64453-2.3711-1.6445-3.3906-3v3.3594h-7.4219v-32.234h7.4219z"/>
  </symbol>
  <symbol id="i" overflow="visible">
   <path d="m0.51562-23.203h7.4219l6.2344 15.75 5.2969-15.75h7.4219l-9.7656 25.406c-0.98047 2.5703-2.1211 4.375-3.4219 5.4062-1.3047 1.0312-3.0273 1.5469-5.1719 1.5469h-4.2812v-4.875h2.3125c1.2578 0 2.1758-0.19922 2.75-0.59375 0.57031-0.39844 1.0156-1.1172 1.3281-2.1562l0.21875-0.64062z"/>
  </symbol>
  <symbol id="h" overflow="visible">
   <path d="m16.281-18.953c1.2578 0 2.2109-0.27344 2.8594-0.82812 0.64453-0.55078 0.96875-1.3633 0.96875-2.4375 0-1.0703-0.32422-1.8828-0.96875-2.4375-0.64844-0.5625-1.6016-0.84375-2.8594-0.84375h-4.4062v6.5469zm0.26562 13.531c1.6016 0 2.8047-0.33594 3.6094-1.0156 0.8125-0.67578 1.2188-1.6953 1.2188-3.0625 0-1.3438-0.40234-2.3477-1.2031-3.0156-0.80469-0.67578-2.0117-1.0156-3.625-1.0156h-4.6719v8.1094zm7.4219-11.125c1.707 0.5 3.0312 1.4219 3.9688 2.7656 0.9375 1.3359 1.4062 2.9766 1.4062 4.9219 0 2.9805-1.0117 5.2031-3.0312 6.6719-2.0117 1.4609-5.0742 2.1875-9.1875 2.1875h-13.234v-30.922h11.969c4.3008 0 7.4141 0.65234 9.3438 1.9531 1.9258 1.293 2.8906 3.3672 2.8906 6.2188 0 1.5117-0.35547 2.7969-1.0625 3.8594-0.71094 1.0547-1.7305 1.8359-3.0625 2.3438z"/>
  </symbol>
  <symbol id="g" overflow="visible">
   <path d="m26.891-14.125v14.125h-7.4688v-10.812c0-2-0.046875-3.3789-0.14062-4.1406-0.085938-0.75781-0.23438-1.3203-0.45312-1.6875-0.29297-0.47656-0.6875-0.85156-1.1875-1.125-0.49219-0.26953-1.0547-0.40625-1.6875-0.40625-1.5547 0-2.7734 0.60156-3.6562 1.7969-0.875 1.1992-1.3125 2.8555-1.3125 4.9688v11.406h-7.4219v-23.203h7.4219v3.4062c1.1133-1.3516 2.2969-2.3516 3.5469-3 1.2578-0.64453 2.6484-0.96875 4.1719-0.96875 2.6758 0 4.707 0.82422 6.0938 2.4688 1.3945 1.6484 2.0938 4.0391 2.0938 7.1719z"/>
  </symbol>
  <symbol id="p" overflow="visible">
   <path d="m3.8906-30.922h7.9844v24.891h14v6.0312h-21.984z"/>
  </symbol>
  <symbol id="o" overflow="visible">
   <path d="m3.5625-32.234h7.4219v17.547l8.5312-8.5156h8.6094l-11.328 10.656 12.219 12.547h-8.9844l-9.0469-9.6719v9.6719h-7.4219z"/>
  </symbol>
  <symbol id="n" overflow="visible">
   <path d="m18.828-32.234v4.875h-4.0938c-1.0547 0-1.7891 0.19531-2.2031 0.57812-0.41797 0.375-0.625 1.0312-0.625 1.9688v1.6094h6.3438v5.3125h-6.3438v17.891h-7.4062v-17.891h-3.6875v-5.3125h3.6875v-1.6094c0-2.5312 0.70312-4.3984 2.1094-5.6094 1.4062-1.207 3.5859-1.8125 6.5469-1.8125z"/>
  </symbol>
  <symbol id="m" overflow="visible">
   <path d="m26.891-14.125v14.125h-7.4688v-10.766c0-2.0312-0.046875-3.4258-0.14062-4.1875-0.085938-0.75781-0.23438-1.3203-0.45312-1.6875-0.29297-0.47656-0.6875-0.85156-1.1875-1.125-0.49219-0.26953-1.0547-0.40625-1.6875-0.40625-1.5547 0-2.7734 0.60156-3.6562 1.7969-0.875 1.1992-1.3125 2.8555-1.3125 4.9688v11.406h-7.4219v-32.234h7.4219v12.438c1.1133-1.3516 2.2969-2.3516 3.5469-3 1.2578-0.64453 2.6484-0.96875 4.1719-0.96875 2.6758 0 4.707 0.82422 6.0938 2.4688 1.3945 1.6484 2.0938 4.0391 2.0938 7.1719z"/>
  </symbol>
  <symbol id="l" overflow="visible">
   <path d="m3.8906-30.922h8.9062l11.25 21.203v-21.203h7.5625v30.922h-8.9062l-11.25-21.219v21.219h-7.5625z"/>
  </symbol>
  <symbol id="k" overflow="visible">
   <path d="m3.8906-30.922h13.234c3.9375 0 6.957 0.875 9.0625 2.625 2.1016 1.7422 3.1562 4.2266 3.1562 7.4531 0 3.25-1.0547 5.75-3.1562 7.5-2.1055 1.7422-5.125 2.6094-9.0625 2.6094h-5.25v10.734h-7.9844zm7.9844 5.7812v8.625h4.4062c1.5391 0 2.7344-0.375 3.5781-1.125s1.2656-1.8164 1.2656-3.2031c0-1.375-0.42188-2.4297-1.2656-3.1719-0.84375-0.75-2.0391-1.125-3.5781-1.125z"/>
  </symbol>
  <symbol id="j" overflow="visible">
   <path d="m3.5625-23.203h7.4219v22.781c0 3.1133-0.75 5.4883-2.25 7.125-1.4922 1.6328-3.6523 2.4531-6.4844 2.4531h-3.6562v-4.875h1.2812c1.4062 0 2.3672-0.32031 2.8906-0.95312 0.53125-0.63672 0.79688-1.8867 0.79688-3.75zm0-9.0312h7.4219v6.0469h-7.4219z"/>
  </symbol>
 </defs>
 <g>
  <path d="m343.13 168.25c-1.2305-0.007812-2.4414-0.26953-3.5664-0.76172-2.0508-0.94141-3.6406-2.6641-4.4219-4.7812-0.78125-2.1172-0.68359-4.457 0.26562-6.5039l65.504-142.8c0.94531-2.0469 2.6641-3.6367 4.7812-4.418 2.1172-0.77734 4.4531-0.68359 6.5039 0.26172 4.2617 1.9648 6.125 7.0195 4.1562 11.285l-65.504 142.8c-1.3906 3.0078-4.4062 4.9297-7.7188 4.9219z"/>
  <path d="m484.32 229.09c-1.2305-0.007813-2.4414-0.26562-3.5664-0.76172-2.0508-0.94141-3.6406-2.6602-4.4219-4.7812-0.78125-2.1172-0.68359-4.457 0.26562-6.5039l64.062-139.58c0.94531-2.0469 2.6641-3.6328 4.7812-4.4141 2.1133-0.78125 4.4531-0.6875 6.5 0.25781 4.2656 1.9688 6.1289 7.0195 4.1602 11.285l-64.062 139.83c-1.4648 2.9062-4.4648 4.7188-7.7188 4.6641z"/>
  <path d="m582.99 551.52c-4.5938 0-9.1367-0.98438-13.32-2.8867l-358.4-164.09c-11.898-5.4648-20.293-16.496-22.387-29.418-2.0977-12.926 2.3867-26.043 11.949-34.984l21.891-20.871c2.7344-2.5234 6.793-2.9727 10.012-1.1055l378.93 217.3c3.6484 2.168 5.1367 6.6992 3.4805 10.609l-2.9688 6.4492v-0.003907c-2.5195 5.6445-6.6133 10.441-11.789 13.812-5.1797 3.3711-11.223 5.1758-17.402 5.1953zm-352.88-235.54-17.734 16.547v-0.003907c-5.3789 5.1016-7.8594 12.547-6.6172 19.855 1.0352 7.4727 5.8438 13.883 12.727 16.969l358.23 163.84c3.582 1.5703 7.6289 1.7031 11.305 0.37891 3.6797-1.3281 6.707-4.0117 8.4648-7.5039z"/>
  <path d="m607.43 531.32c-1.4805-0.035156-2.9336-0.41016-4.2422-1.1016l-378.59-217.38c-2.0938-1.2031-3.5742-3.2383-4.0742-5.5977-0.48047-2.3398 0.042969-4.7734 1.4453-6.7031l77.125-107.34c3.418-4.7812 8.2188-8.4023 13.754-10.375 5.5391-1.9727 11.547-2.1992 17.219-0.65625 5.4219 1.332 10.293 4.3203 13.945 8.5469 3.6484 4.2266 5.8906 9.4844 6.418 15.043v2.1211c0.42188 14.625 7.918 28.137 20.109 36.23l4.3281 2.6289h-0.003906c12.75 7.2891 28.191 8.1367 41.66 2.293 15.078-6.0156 31.348-8.4258 47.516-7.043 5.5703 0.23047 10.953 2.0898 15.477 5.3477 4.5234 3.2578 7.9922 7.7695 9.9805 12.98l38.691 100.97c5.043 13.34 11.832 25.949 20.191 37.504 8.7891 11.738 19.121 22.242 30.715 31.223l16.207 12.812c12.145 9.6523 20.703 23.098 24.305 38.188 3.5977 15.094 2.0312 30.953-4.4492 45.051-0.98047 2.1719-2.8281 3.8359-5.0898 4.5781-0.83984 0.35938-1.7266 0.58984-2.6328 0.67969zm-366.21-228.5 361.62 207.62c2.5781-9.8438 2.2227-20.227-1.0195-29.875-3.2383-9.6445-9.2266-18.137-17.223-24.43l-16.207-12.812c-25.32-19.852-44.719-46.262-56.082-76.363l-38.691-100.54c-1.5547-4.3125-5.5234-7.2812-10.098-7.5547-13.543-1.1055-27.164 0.80469-39.879 5.6016-18.309 7.9688-39.301 6.8711-56.68-2.9688l-5.0078-3.0547h0.003906c-16.926-11.043-27.359-29.688-27.918-49.891-0.042969-0.56641-0.042969-1.1328 0-1.6992-0.5-4.2148-3.6445-7.6367-7.8047-8.4844-4.7969-1.3359-9.9219 0.41797-12.898 4.4141z"/>
  <path d="m511.21 423.73c-5.8555 0-11.59-1.6758-16.523-4.8359-4.9336-3.1562-8.8555-7.6641-11.305-12.984l-37.332-81.965-0.003906 0.003906c-3.332-7.3516-3.6133-15.723-0.78516-23.277 2.832-7.5547 8.5469-13.68 15.891-17.027l23.672-10.859c2.1406-0.92187 4.5625-0.92187 6.7031 0 2.1875 0.87891 3.9102 2.6328 4.75 4.8359l31.906 83.66c5.043 13.34 11.832 25.949 20.191 37.504 1.5078 2.0547 2.0078 4.6797 1.3672 7.1484-0.64063 2.4688-2.3594 4.5156-4.6758 5.5781l-21.465 9.7578c-3.9102 1.6875-8.1328 2.5273-12.391 2.4609zm-27.746-131.77-15.441 7.043c-6.7695 3.1133-9.7617 11.105-6.7031 17.902l37.336 81.879c1.5195 3.2266 4.2227 5.75 7.5508 7.043 3.3672 1.2578 7.0977 1.1055 10.352-0.42578l12.305-5.5156h-0.003906c-6.6172-10.293-12.16-21.242-16.543-32.668z"/>
  <path d="m494.75 306.13c-3.5508 0.011719-6.7305-2.1875-7.9727-5.5156-1.6016-4.3789 0.63281-9.2305 5.0039-10.859l18.328-6.8711c4.4062-1.6172 9.2852 0.64062 10.902 5.0469 1.6172 4.4062-0.64453 9.2852-5.0469 10.902l-18.242 6.7891c-0.95703 0.33203-1.9609 0.50391-2.9727 0.50781z"/>
  <path d="m505.7 335.49c-4.1328 0.035156-7.6914-2.9102-8.4258-6.9805-0.73047-4.0664 1.5703-8.0703 5.457-9.4805l18.242-6.7891c2.1367-0.94141 4.5664-0.96094 6.7188-0.054688s3.8359 2.6562 4.6523 4.8438c0.82031 2.1875 0.69922 4.6133-0.32812 6.7109-1.0273 2.0938-2.8711 3.6758-5.1016 4.3672l-18.328 6.8711c-0.92578 0.33594-1.9023 0.50781-2.8867 0.51172z"/>
  <path d="m516.56 364.85c-4.0469-0.070312-7.4805-2.9883-8.2031-6.9688-0.72266-3.9805 1.4688-7.9219 5.2305-9.4062l18.328-6.8711c4.4062-1.6172 9.2891 0.64063 10.902 5.0469 1.6172 4.4062-0.64062 9.2852-5.0469 10.902l-18.242 6.7891c-0.95312 0.33203-1.957 0.50391-2.9688 0.50781z"/>
  <path d="m532.43 392.85c-4.1367 0.039063-7.6953-2.9102-8.4258-6.9766-0.73438-4.0703 1.5703-8.0742 5.4531-9.4844l18.328-6.7891v0.003906c4.4062-1.6406 9.3047 0.59766 10.945 5.0039 1.6406 4.4062-0.60156 9.3047-5.0039 10.945l-18.328 6.7891c-0.95312 0.34375-1.957 0.51562-2.9688 0.50781z"/>
  <path d="m342.28 539.21h-255.31c-4.6836 0-8.4844-3.7969-8.4844-8.4844 0-4.6836 3.8008-8.4844 8.4844-8.4844h255.31c4.6875 0 8.4844 3.8008 8.4844 8.4844 0 4.6875-3.7969 8.4844-8.4844 8.4844z"/>
  <path d="m236.39 496.62h-149.42c-4.6836 0-8.4844-3.7969-8.4844-8.4844 0-4.6836 3.8008-8.4844 8.4844-8.4844h149.42c4.6875 0 8.4844 3.8008 8.4844 8.4844 0 4.6875-3.7969 8.4844-8.4844 8.4844z"/>
  <path d="m140.59 454.02h-53.625c-4.6836 0-8.4844-3.7969-8.4844-8.4844s3.8008-8.4844 8.4844-8.4844h53.625c4.6875 0 8.4844 3.7969 8.4844 8.4844s-3.7969 8.4844-8.4844 8.4844z"/>
  <use x="70" y="687.273438" xlink:href="#q"/>
  <use x="101.132813" y="687.273438" xlink:href="#c"/>
  <use x="122.058594" y="687.273438" xlink:href="#a"/>
  <use x="150.828125" y="687.273438" xlink:href="#f"/>
  <use x="179.457031" y="687.273438" xlink:href="#b"/>
  <use x="199.738281" y="687.273438" xlink:href="#a"/>
  <use x="228.511719" y="687.273438" xlink:href="#e"/>
  <use x="273.648438" y="687.273438" xlink:href="#d"/>
  <use x="304.015625" y="687.273438" xlink:href="#i"/>
  <use x="346.441406" y="687.273438" xlink:href="#h"/>
  <use x="378.777344" y="687.273438" xlink:href="#a"/>
  <use x="407.550781" y="687.273438" xlink:href="#c"/>
  <use x="428.472656" y="687.273438" xlink:href="#g"/>
  <use x="458.675781" y="687.273438" xlink:href="#e"/>
  <use x="503.8125" y="687.273438" xlink:href="#p"/>
  <use x="530.847656" y="687.273438" xlink:href="#f"/>
  <use x="559.472656" y="687.273438" xlink:href="#o"/>
  <use x="587.6875" y="687.273438" xlink:href="#a"/>
  <use x="616.460938" y="687.273438" xlink:href="#g"/>
  <use x="646.664063" y="687.273438" xlink:href="#d"/>
  <use x="677.03125" y="687.273438" xlink:href="#c"/>
  <use x="70" y="729.695312" xlink:href="#n"/>
  <use x="197.5" y="729.695312" xlink:href="#b"/>
  <use x="217.78125" y="729.695312" xlink:href="#m"/>
  <use x="291.527344" y="729.695312" xlink:href="#l"/>
  <use x="431.351563" y="729.695312" xlink:href="#k"/>
  <use x="512.511719" y="729.695312" xlink:href="#j"/>
  <use x="580.976562" y="729.695312" xlink:href="#b"/>
 </g>
</svg>
